<?xml version="1.0" encoding="utf-8"?>
<svg version="1.1" id="Layer_1" xmlns="http://www.w3.org/2000/svg" xmlns:xlink="http://www.w3.org/1999/xlink" x="0px" y="0px"
	 viewBox="0 0 612 319" style="enable-background:new 0 0 612 319;" xml:space="preserve">
<style type="text/css">
	.st0{stroke:#231F20;stroke-linecap:round;stroke-linejoin:round;stroke-miterlimit:10;}
</style>
<g>
	<g>
		<g>
			<g>
				<path d="M145.35,66.26H145L84.03,191.7h16.24l0,0c-4.07-6.53-4.5-14.68-1.15-21.6l36.68-75.5l46.11,97.1h24.54L145.35,66.26z"/>
				<path d="M375,103.99c-5.22-4.47-11.78-6.73-19.69-6.73c-14.99,0-29.18,9.11-42.52,27.29v-0.52c0-8.87-2.58-15.55-7.8-20.04
					c-5.19-4.47-11.75-6.73-19.66-6.73c-15.11,0-29.35,9.17-42.69,27.47V94.59l-22.85,9.71v87.39h23.03v-62.73
					c5.08-9.25,10.38-12.96,15.86-17c5.48-4,10.85-6.03,16.04-6.03c4.73,0,8.18,1.19,10.35,3.54c2.2,2.38,3.51,4.99,4,7.8
					c0.46,2.84,0.7,4.15,0.7,7.8v66.62h23.03v-62.73c5.08-7.31,10.35-12.96,15.78-17c5.42-4,10.82-6.03,16.13-6.03
					c4.73,0,8.18,1.19,10.35,3.54c2.2,2.38,3.51,4.99,4,7.8c0.46,2.84,0.7,4.15,0.7,7.8v66.62h23.03v-67.66
					C382.78,115.16,380.19,108.49,375,103.99z"/>
				<path d="M477.08,103.56c-8.32-5.13-19.35-7.71-33.06-7.71c-11.22,0-20.68,2-28.42,6.03c-7.74,4-11.6,10.44-11.6,19.32
					c0,4.73,1.25,8.47,3.71,11.25c2.49,2.76,5.86,4.64,9.05,5.57l0.99-9.38l-1.73,0.49c-4.79,1.37-9.57-2.21-9.61-7.19v0
					c0-7.45,3.13-13.14,9.37-17.11c6.26-3.94,13.78-5.92,22.51-5.92c9.69,0,16.01,1.75,20.91,6.77c4.9,5.02,7.34,11.72,7.34,20.13
					v5.13c-3.31,4.12-7.69,7.22-13.2,9.28c-5.48,2.09-12.73,4-21.69,5.77c-8.03,1.54-14.39,3.05-19.06,4.52
					c-4.67,1.48-8.58,3.77-11.78,6.9c-3.19,3.13-4.79,7.42-4.79,12.85c0,6.96,2.47,12.3,7.42,15.95c4.99,3.65,12.07,5.48,21.29,5.48
					c10.5,0,19.4-2.58,26.65-7.8c7.25-5.19,12.38-11.63,15.31-19.32v27.12h22.88v-61.31C489.58,117.65,485.4,108.69,477.08,103.56z
					 M466.52,159.27c-1.04,4.15-3.05,8.29-5.92,12.5c-2.9,4.18-6.5,7.69-10.82,10.44c-4.32,2.78-8.93,4.18-13.92,4.18
					c-5.31,0-9.14-1.62-11.51-4.87c-2.35-3.25-3.54-7.37-3.54-12.33c0-5.77,1.04-10.3,3.1-13.54c2.06-3.25,4.64-5.6,7.71-7.08
					c3.07-1.48,7.31-2.99,12.76-4.52c5.42-1.65,9.8-3.19,13.11-4.61c3.31-1.42,6.32-3.54,9.02-6.38V159.27z"/>
				<path d="M502.81,75.97V191.7h23.06V66.26L502.81,75.97z"/>
			</g>
		</g>
		<g>
			<path class="st0" d="M118.36,250.5h-3.74l-5.58-11.73H89.72l-5.58,11.73h-0.46l17.31-36.26h0.1L118.36,250.5z M99.4,218.49
				l-9.48,19.87h18.9L99.4,218.49z"/>
			<path class="st0" d="M147.24,224.71c1.81,1.01,3.23,2.48,4.25,4.4c1.02,1.93,1.54,4.21,1.54,6.84c0,2.66-0.52,5.13-1.56,7.4
				c-1.04,2.27-2.64,4.1-4.79,5.48c-2.15,1.38-4.8,2.07-7.94,2.07c-2.77,0-5.11-0.78-7.04-2.36c-1.93-1.57-3.2-3.48-3.82-5.74
				l-0.56,7.68h-2.61v-38.57l3.23-0.87v21.87c1.4-3.21,3.22-5.63,5.45-7.27c2.24-1.64,4.76-2.46,7.55-2.46
				C143.33,223.2,145.43,223.71,147.24,224.71z M149.5,236.06c0-3.38-0.61-6.27-1.84-8.66c-1.23-2.39-3.67-3.59-7.32-3.59
				c-2.63,0-5.02,0.84-7.17,2.54c-2.15,1.69-3.89,4.26-5.22,7.71v5.79c0,1.91,0.46,3.67,1.38,5.28c0.92,1.61,2.18,2.88,3.76,3.82
				c1.59,0.94,3.36,1.41,5.3,1.41C145.79,250.35,149.5,245.59,149.5,236.06z"/>
			<path class="st0" d="M180.85,225.36c2.36,1.43,3.53,3.89,3.53,7.38v17.77h-2.61l-0.61-8.96c-0.79,1.64-1.93,3.18-3.43,4.61
				c-1.5,1.43-3.25,2.59-5.25,3.46c-2,0.87-4.09,1.31-6.27,1.31c-2.6,0-4.63-0.51-6.09-1.54c-1.47-1.02-2.2-2.56-2.2-4.61
				c0-1.71,0.53-3.04,1.59-4c1.06-0.96,2.4-1.65,4.02-2.07c1.62-0.43,3.66-0.79,6.12-1.1c3.14-0.34,5.56-0.74,7.25-1.2
				c1.69-0.46,3.12-1.31,4.28-2.54v-1.43c0-5.84-3.28-8.76-9.83-8.76c-3.38,0-6.04,0.63-7.96,1.9c-1.93,1.26-2.89,2.94-2.89,5.02
				c0,0.89,0.21,1.67,0.64,2.36c0.43,0.68,1.03,1.21,1.82,1.59l-0.21,0.36c-0.68-0.34-1.3-0.86-1.84-1.56
				c-0.55-0.7-0.82-1.61-0.82-2.74c0-2.46,1.13-4.3,3.41-5.53c2.27-1.23,4.99-1.84,8.17-1.84
				C175.42,223.2,178.49,223.92,180.85,225.36z M173.09,248.81c1.9-0.92,3.55-2.13,4.97-3.61c1.42-1.48,2.45-3.03,3.1-4.63v-6.15
				c-1.13,1.06-2.46,1.8-4,2.23c-1.54,0.43-3.55,0.79-6.04,1.1c-2.22,0.31-3.95,0.63-5.2,0.97c-1.25,0.34-2.3,0.98-3.15,1.92
				c-0.85,0.94-1.28,2.3-1.28,4.07c0,3.65,1.91,5.48,5.74,5.48C169.23,250.2,171.19,249.74,173.09,248.81z"/>
			<path class="st0" d="M216.14,223.61h0.56l-13.42,28.32c-1.47,3-3,5.44-4.61,7.3c-1.61,1.86-3.57,2.79-5.89,2.79
				c-1.61,0-2.88-0.5-3.82-1.49c-0.94-0.99-1.41-2.34-1.41-4.05c0-0.75,0.17-1.69,0.51-2.82l0.41,0.1
				c-0.31,1.09-0.46,1.98-0.46,2.66c0,1.57,0.43,2.82,1.28,3.74c0.85,0.92,2.01,1.38,3.48,1.38c2.18,0,4.07-0.92,5.66-2.77
				c1.59-1.84,3.12-4.3,4.58-7.38l-13.52-27.81h3.64l11.52,24.28L216.14,223.61z"/>
			<path class="st0" d="M241.9,225.36c2.36,1.43,3.53,3.89,3.53,7.38v17.77h-2.61l-0.61-8.96c-0.79,1.64-1.93,3.18-3.43,4.61
				c-1.5,1.43-3.25,2.59-5.25,3.46c-2,0.87-4.09,1.31-6.27,1.31c-2.6,0-4.63-0.51-6.09-1.54c-1.47-1.02-2.2-2.56-2.2-4.61
				c0-1.71,0.53-3.04,1.59-4c1.06-0.96,2.4-1.65,4.02-2.07c1.62-0.43,3.66-0.79,6.12-1.1c3.14-0.34,5.56-0.74,7.25-1.2
				c1.69-0.46,3.12-1.31,4.28-2.54v-1.43c0-5.84-3.28-8.76-9.83-8.76c-3.38,0-6.04,0.63-7.96,1.9c-1.93,1.26-2.89,2.94-2.89,5.02
				c0,0.89,0.21,1.67,0.64,2.36c0.43,0.68,1.03,1.21,1.82,1.59l-0.21,0.36c-0.68-0.34-1.3-0.86-1.84-1.56
				c-0.55-0.7-0.82-1.61-0.82-2.74c0-2.46,1.13-4.3,3.41-5.53c2.27-1.23,4.99-1.84,8.17-1.84
				C236.47,223.2,239.54,223.92,241.9,225.36z M234.14,248.81c1.9-0.92,3.55-2.13,4.97-3.61c1.42-1.48,2.45-3.03,3.1-4.63v-6.15
				c-1.13,1.06-2.46,1.8-4,2.23c-1.54,0.43-3.55,0.79-6.04,1.1c-2.22,0.31-3.95,0.63-5.2,0.97c-1.25,0.34-2.3,0.98-3.15,1.92
				c-0.85,0.94-1.28,2.3-1.28,4.07c0,3.65,1.91,5.48,5.74,5.48C230.29,250.2,232.24,249.74,234.14,248.81z"/>
			<path class="st0" d="M286.92,225.36c2.36,1.43,3.53,3.89,3.53,7.38v17.77h-2.61l-0.61-8.96c-0.79,1.64-1.93,3.18-3.43,4.61
				c-1.5,1.43-3.25,2.59-5.25,3.46c-2,0.87-4.09,1.31-6.27,1.31c-2.6,0-4.63-0.51-6.09-1.54c-1.47-1.02-2.2-2.56-2.2-4.61
				c0-1.71,0.53-3.04,1.59-4c1.06-0.96,2.4-1.65,4.02-2.07c1.62-0.43,3.66-0.79,6.12-1.1c3.14-0.34,5.56-0.74,7.25-1.2
				c1.69-0.46,3.12-1.31,4.28-2.54v-1.43c0-5.84-3.28-8.76-9.83-8.76c-3.38,0-6.04,0.63-7.96,1.9c-1.93,1.26-2.89,2.94-2.89,5.02
				c0,0.89,0.21,1.67,0.64,2.36c0.43,0.68,1.03,1.21,1.82,1.59l-0.21,0.36c-0.68-0.34-1.3-0.86-1.84-1.56
				c-0.55-0.7-0.82-1.61-0.82-2.74c0-2.46,1.13-4.3,3.41-5.53c2.27-1.23,4.99-1.84,8.17-1.84
				C281.49,223.2,284.57,223.92,286.92,225.36z M279.16,248.81c1.9-0.92,3.55-2.13,4.97-3.61c1.42-1.48,2.45-3.03,3.1-4.63v-6.15
				c-1.13,1.06-2.46,1.8-4,2.23c-1.54,0.43-3.55,0.79-6.04,1.1c-2.22,0.31-3.95,0.63-5.2,0.97c-1.25,0.34-2.3,0.98-3.15,1.92
				c-0.85,0.94-1.28,2.3-1.28,4.07c0,3.65,1.91,5.48,5.74,5.48C275.31,250.2,277.27,249.74,279.16,248.81z"/>
			<path class="st0" d="M322.7,225.33c1.66,1.42,2.48,3.61,2.48,6.58v18.59h-3.23v-18.54c0-1.33-0.1-2.53-0.31-3.59
				c-0.2-1.06-0.8-2.06-1.79-3c-0.99-0.94-2.53-1.41-4.61-1.41c-2.49,0-4.95,0.91-7.38,2.74c-2.42,1.83-4.52,4.19-6.3,7.09v16.7
				h-3.23v-26.53l2.92-0.77l0.31,9.83c2.05-3.18,4.36-5.61,6.94-7.3c2.58-1.69,5.23-2.54,7.97-2.54
				C318.97,223.2,321.04,223.91,322.7,225.33z"/>
			<path class="st0" d="M357.2,211.94l3.18-0.87v39.44h-2.56l-0.51-9.53c-1.4,3.28-3.23,5.75-5.48,7.43
				c-2.25,1.67-4.82,2.51-7.68,2.51c-2.36,0-4.45-0.55-6.27-1.64c-1.83-1.09-3.25-2.64-4.28-4.64c-1.02-2-1.54-4.31-1.54-6.94
				c0-2.66,0.49-5.09,1.49-7.27c0.99-2.18,2.53-3.93,4.61-5.25c2.08-1.31,4.69-1.97,7.84-1.97c2.73,0,5.11,0.78,7.15,2.33
				c2.03,1.55,3.39,3.49,4.07,5.81V211.94z M351.95,247.76c2.17-1.69,3.92-4.26,5.25-7.71v-5.79c0-1.91-0.5-3.67-1.49-5.28
				c-0.99-1.61-2.32-2.88-3.99-3.82c-1.67-0.94-3.48-1.41-5.43-1.41c-3.42,0-6.04,1.01-7.89,3.02c-1.84,2.02-2.77,5.62-2.77,10.81
				c0,8.47,3.06,12.7,9.17,12.7C347.4,250.3,349.78,249.45,351.95,247.76z"/>
			<path class="st0" d="M426.32,225.33c1.66,1.42,2.48,3.61,2.48,6.58v18.59h-3.23v-18.54c0-1.33-0.09-2.53-0.28-3.59
				c-0.19-1.06-0.75-2.06-1.69-3c-0.94-0.94-2.4-1.41-4.38-1.41c-2.36,0-4.7,0.91-7.02,2.74c-2.32,1.83-4.4,4.19-6.25,7.09v16.7
				h-3.18v-18.54c0-1.3-0.1-2.48-0.31-3.56c-0.21-1.08-0.78-2.08-1.72-3.02c-0.94-0.94-2.4-1.41-4.38-1.41
				c-2.36,0-4.7,0.91-7.04,2.74c-2.34,1.83-4.4,4.19-6.17,7.09v16.7h-3.23v-26.53l3.23-0.77v9.83c2.08-3.21,4.34-5.65,6.76-7.32
				c2.42-1.67,4.93-2.51,7.53-2.51c2.39,0,4.41,0.71,6.04,2.13c1.64,1.42,2.46,3.61,2.46,6.58v1.13c2.12-3.21,4.39-5.65,6.81-7.32
				c2.42-1.67,4.92-2.51,7.48-2.51C422.64,223.2,424.66,223.91,426.32,225.33z"/>
			<path class="st0" d="M443.17,249.2c-2.27-1.14-4.09-2.77-5.46-4.87c-1.37-2.1-2.05-4.52-2.05-7.25c0-2.77,0.68-5.2,2.05-7.3
				c1.37-2.1,3.18-3.72,5.46-4.87c2.27-1.14,4.74-1.72,7.4-1.72c2.66,0,5.13,0.57,7.4,1.72c2.27,1.14,4.09,2.77,5.45,4.87
				c1.37,2.1,2.05,4.53,2.05,7.3c0,2.73-0.68,5.15-2.05,7.25c-1.37,2.1-3.18,3.72-5.45,4.87c-2.27,1.14-4.74,1.72-7.4,1.72
				C447.91,250.91,445.44,250.34,443.17,249.2z M459.1,246.82c1.86-2.46,2.79-5.7,2.79-9.73c0-4-0.93-7.24-2.79-9.73
				c-1.86-2.49-4.7-3.74-8.53-3.74c-3.82,0-6.67,1.25-8.53,3.74c-1.86,2.49-2.79,5.74-2.79,9.73c0,4.03,0.93,7.27,2.79,9.73
				c1.86,2.46,4.7,3.69,8.53,3.69C454.39,250.5,457.24,249.28,459.1,246.82z"/>
			<path class="st0" d="M492.03,224.97c1.21,1.18,1.82,2.71,1.82,4.58c0,1.5-0.48,2.94-1.43,4.3l-0.36-0.21
				c0.92-1.36,1.38-2.73,1.38-4.1c0-1.81-0.57-3.25-1.72-4.33c-1.14-1.08-2.74-1.61-4.79-1.61c-2.53,0-4.81,1.14-6.86,3.41
				c-2.05,2.27-3.55,5.11-4.51,8.53v14.96h-3.23v-26.53l2.92-0.77l0.26,11.11c1.09-3.35,2.67-6.03,4.74-8.07
				c2.07-2.03,4.29-3.05,6.68-3.05C489.12,223.2,490.82,223.79,492.03,224.97z"/>
			<path class="st0" d="M526.22,240c-1.3,3.25-3.2,5.87-5.71,7.89c-2.51,2.02-5.4,3.02-8.68,3.02c-2.83,0-5.28-0.59-7.35-1.77
				c-2.07-1.18-3.64-2.77-4.71-4.76c-1.08-2-1.61-4.21-1.61-6.63c0-3,0.68-5.6,2.05-7.79c1.37-2.18,3.23-3.86,5.58-5.02
				c2.36-1.16,5-1.74,7.94-1.74c2.19,0,4.07,0.38,5.66,1.15c1.59,0.77,2.81,1.8,3.66,3.1c0.85,1.3,1.28,2.73,1.28,4.3
				c0,0.72-0.09,1.35-0.26,1.9H502c-0.2,1.06-0.31,2.15-0.31,3.28c0,2.63,0.52,4.9,1.56,6.81c1.04,1.91,2.42,3.36,4.12,4.35
				c1.71,0.99,3.55,1.48,5.53,1.48c2.97,0,5.56-0.84,7.76-2.54c2.2-1.69,3.94-4.09,5.2-7.2L526.22,240z M505.96,226.28
				c-2.03,1.74-3.34,4.06-3.92,6.97h21.72c0.1-0.51,0.15-1.02,0.15-1.54c0-1.54-0.42-2.91-1.25-4.12c-0.84-1.21-2.01-2.17-3.51-2.87
				c-1.5-0.7-3.23-1.05-5.17-1.05C510.67,223.67,508,224.54,505.96,226.28z"/>
		</g>
	</g>
	<g>
		<g>
			<path d="M91,65.98c3.13,0,5.68,2.54,5.68,5.68c0,3.13-2.55,5.68-5.69,5.68c-3.14-0.01-5.69-2.56-5.67-5.72
				C85.34,68.49,87.89,65.97,91,65.98z M95.96,71.66c0-2.73-2.21-4.95-4.94-4.96c-2.76-0.01-4.97,2.24-4.98,4.94
				c-0.01,2.72,2.19,4.97,4.96,4.97C93.74,76.62,95.95,74.39,95.96,71.66z"/>
			<path d="M90.82,69.71c0.24,0,0.47,0,0.71,0c0.02,0.02,0.02,0.04,0.03,0.06c0.24,0.6,0.49,1.21,0.73,1.81
				c0.14,0.34,0.28,0.69,0.42,1.03c0.01,0.02,0.01,0.04,0.03,0.06c0.06-0.14,0.12-0.28,0.17-0.42c0.06-0.14,0.11-0.28,0.17-0.42
				c0.06-0.14,0.11-0.28,0.17-0.42c0.06-0.14,0.11-0.29,0.17-0.43c0.06-0.14,0.11-0.28,0.17-0.42s0.11-0.28,0.17-0.42
				c0.06-0.14,0.11-0.28,0.17-0.42c0.05-0.01,0.68-0.01,0.73,0c0,0.01,0.01,0.01,0.01,0.02c0.01,0.12,0.02,0.23,0.02,0.35
				c0.01,0.13,0.02,0.26,0.03,0.4c0.01,0.13,0.02,0.26,0.03,0.39c0.01,0.14,0.02,0.28,0.03,0.41c0.01,0.13,0.02,0.26,0.03,0.39
				c0.01,0.14,0.02,0.28,0.03,0.41c0.01,0.12,0.02,0.25,0.03,0.37c0.01,0.14,0.02,0.28,0.03,0.43c0.01,0.12,0.02,0.25,0.03,0.37
				c0.01,0.14,0.02,0.28,0.03,0.43c0,0.03,0,0.06,0,0.09c-0.02,0-0.03,0.01-0.04,0.01c-0.22,0-0.43,0-0.65,0c-0.01,0-0.03,0-0.04,0
				c-0.01-0.06-0.01-0.12-0.02-0.18c-0.01-0.06-0.01-0.12-0.01-0.18c0-0.06-0.01-0.12-0.01-0.18c0-0.06-0.01-0.12-0.01-0.18
				c0-0.06-0.01-0.12-0.01-0.18c0-0.06-0.01-0.12-0.01-0.18c0-0.06-0.01-0.12-0.01-0.18c0-0.06-0.01-0.12-0.01-0.18
				c0-0.06-0.01-0.12-0.01-0.18c0-0.06-0.01-0.12-0.01-0.18c0-0.06-0.01-0.12-0.01-0.18c0-0.06-0.01-0.12-0.01-0.18
				c0-0.06-0.01-0.12-0.01-0.18c0-0.06-0.01-0.12-0.01-0.18c-0.02,0-0.02,0.01-0.02,0.02c-0.05,0.12-0.1,0.24-0.15,0.36
				c-0.29,0.7-0.57,1.39-0.86,2.09c-0.01,0.02-0.02,0.04-0.03,0.06c-0.05,0.01-0.42,0.01-0.49,0c-0.02-0.01-0.02-0.04-0.03-0.05
				c-0.12-0.3-0.24-0.59-0.37-0.89c-0.21-0.51-0.42-1.03-0.63-1.54c-0.01-0.02-0.01-0.04-0.03-0.05c-0.01,0.03-0.01,0.05-0.01,0.08
				c0,0.03-0.01,0.05-0.01,0.08c0,0.02,0,0.05,0,0.07c0,0.02,0,0.05-0.01,0.07c0,0.03,0,0.05,0,0.08c0,0.02,0,0.05-0.01,0.07
				c0,0.02,0,0.05,0,0.07c0,0.03,0,0.05-0.01,0.08c0,0.02,0,0.05-0.01,0.07c0,0.02,0,0.05,0,0.07c0,0.03,0,0.05-0.01,0.08
				c0,0.02,0,0.05,0,0.07c0,0.02,0,0.05-0.01,0.07c0,0.03,0,0.05,0,0.08c0,0.02,0,0.05-0.01,0.07c0,0.02,0,0.05,0,0.07
				c0,0.03-0.01,0.05-0.01,0.08c0,0.02,0,0.05,0,0.07c0,0.02,0,0.05-0.01,0.07c0,0.03,0,0.05,0,0.08c0,0.02,0,0.05-0.01,0.07
				s0,0.05,0,0.07c0,0.03,0,0.05-0.01,0.08c0,0.02,0,0.05,0,0.07c0,0.02,0,0.05-0.01,0.07c0,0.03,0,0.05-0.01,0.08
				c0,0.02,0,0.05-0.01,0.07c0,0.02,0,0.05-0.01,0.07c0,0.03,0,0.05-0.01,0.08c0,0.02,0,0.05-0.01,0.07c0,0.02,0,0.05,0,0.07
				c0,0.03,0,0.05-0.01,0.08c0,0.02,0,0.05-0.01,0.08c-0.01,0-0.02,0.01-0.03,0.01c-0.22,0-0.45,0-0.67,0c-0.01,0-0.02,0-0.03,0
				c-0.01-0.02-0.01-0.04,0-0.06c0.01-0.13,0.02-0.26,0.03-0.39c0.01-0.12,0.02-0.25,0.03-0.37c0.01-0.14,0.02-0.29,0.03-0.43
				c0.01-0.12,0.02-0.25,0.03-0.37c0.01-0.14,0.02-0.29,0.03-0.43c0.01-0.12,0.02-0.24,0.03-0.36c0.01-0.15,0.02-0.29,0.03-0.44
				c0.01-0.13,0.02-0.25,0.03-0.38c0.01-0.14,0.02-0.28,0.03-0.41c0.01-0.12,0.02-0.25,0.03-0.37
				C90.81,69.74,90.81,69.72,90.82,69.71z"/>
			<path d="M86.91,69.71c0.01,0,0.02,0,0.02,0c1.18,0,2.37,0,3.56,0c0,0.01,0.01,0.02,0.01,0.03c0,0.2,0,0.41,0,0.61
				c0,0.01,0,0.01,0,0.02c-0.02,0.01-0.04,0.01-0.06,0.01c-0.16,0-0.32,0-0.48,0c-0.27,0-0.53,0-0.8,0c-0.02,0-0.04,0-0.07,0
				c0,0.01,0,0.02,0,0.04c0,0.02,0,0.04,0,0.06c0,1.07,0,2.14,0,3.21c0,0.02,0,0.05,0,0.08c-0.01,0-0.02,0-0.03,0
				c-0.23,0-0.46,0-0.69,0c-0.01,0-0.01,0-0.03,0c0-0.01,0-0.02,0-0.03c0-0.02,0-0.04,0-0.06c0-1.07,0-2.14,0-3.21
				c0-0.02,0-0.05,0-0.08c-0.01,0-0.03,0-0.04,0c-0.02,0-0.04,0-0.06,0c-0.42,0-0.84,0-1.26,0c-0.02,0-0.05,0-0.07,0
				c0-0.01,0-0.02,0-0.03c0-0.2,0-0.4,0-0.61C86.91,69.73,86.91,69.72,86.91,69.71z"/>
		</g>
	</g>
</g>
</svg>
